<svg xmlns="http://www.w3.org/2000/svg" xmlns:xlink="http://www.w3.org/1999/xlink" width="794" zoomAndPan="magnify" viewBox="0 0 595.5 842.249979" height="1123" preserveAspectRatio="xMidYMid meet" version="1.0"><defs><filter x="0%" y="0%" width="100%" height="100%" id="07f9b25584"><feColorMatrix values="0 0 0 0 1 0 0 0 0 1 0 0 0 0 1 0 0 0 1 0" color-interpolation-filters="sRGB"/></filter><clipPath id="fe3397d857"><path d="M 0.015625 0 L 594.984375 0 L 594.984375 841.5 L 0.015625 841.5 Z M 0.015625 0 " clip-rule="nonzero"/></clipPath><clipPath id="10a8f8628e"><path d="M 0.015625 0 L 594.984375 0 L 594.984375 841.5 L 0.015625 841.5 Z M 0.015625 0 " clip-rule="nonzero"/></clipPath><clipPath id="9b8636952c"><path d="M 0.015625 0 L 594.984375 0 L 594.984375 153 L 0.015625 153 Z M 0.015625 0 " clip-rule="nonzero"/></clipPath><clipPath id="f20e7b76a8"><path d="M 563.679688 252.992188 L -56.996094 191.839844 L -25.683594 -125.957031 L 594.992188 -64.808594 Z M 563.679688 252.992188 " clip-rule="nonzero"/></clipPath><clipPath id="519cabae3b"><path d="M 563.679688 252.992188 L -56.996094 191.839844 L -25.683594 -125.957031 L 594.992188 -64.808594 Z M 563.679688 252.992188 " clip-rule="nonzero"/></clipPath><clipPath id="ab0b6f5ca5"><path d="M 563.628906 252.984375 L -56.582031 191.882812 L -25.292969 -125.714844 L 594.921875 -64.609375 Z M 563.628906 252.984375 " clip-rule="nonzero"/></clipPath><mask id="b72d929337"><g filter="url(#07f9b25584)"><rect x="-131.01" width="857.52" fill="#000000" y="-185.294995" height="1212.839969" fill-opacity="0.5"/></g></mask><clipPath id="690a3ee8d6"><path d="M 0.015625 0 L 594.925781 0 L 594.925781 91 L 0.015625 91 Z M 0.015625 0 " clip-rule="nonzero"/></clipPath><clipPath id="687b2e5489"><path d="M 563.679688 252.992188 L -56.996094 191.839844 L -25.683594 -125.957031 L 594.992188 -64.808594 Z M 563.679688 252.992188 " clip-rule="nonzero"/></clipPath><clipPath id="04a1ff4660"><path d="M 563.679688 252.992188 L -56.996094 191.839844 L -25.683594 -125.957031 L 594.992188 -64.808594 Z M 563.679688 252.992188 " clip-rule="nonzero"/></clipPath><clipPath id="83e1c1b94e"><path d="M 563.628906 252.984375 L -56.582031 191.882812 L -25.292969 -125.714844 L 594.921875 -64.609375 Z M 563.628906 252.984375 " clip-rule="nonzero"/></clipPath><clipPath id="ec68456c1c"><rect x="0" width="595" y="0" height="153"/></clipPath><clipPath id="d4bd80e698"><path d="M 0.015625 0 L 489 0 L 489 192 L 0.015625 192 Z M 0.015625 0 " clip-rule="nonzero"/></clipPath><clipPath id="6024dc3a8c"><path d="M 563.679688 252.992188 L -56.996094 191.839844 L -25.683594 -125.957031 L 594.992188 -64.808594 Z M 563.679688 252.992188 " clip-rule="nonzero"/></clipPath><clipPath id="27048c0545"><path d="M 563.679688 252.992188 L -56.996094 191.839844 L -25.683594 -125.957031 L 594.992188 -64.808594 Z M 563.679688 252.992188 " clip-rule="nonzero"/></clipPath><clipPath id="4163b532e1"><path d="M 563.628906 252.984375 L -56.582031 191.882812 L -25.292969 -125.714844 L 594.921875 -64.609375 Z M 563.628906 252.984375 " clip-rule="nonzero"/></clipPath><clipPath id="d40c222a5e"><path d="M 0.015625 0 L 594.984375 0 L 594.984375 153 L 0.015625 153 Z M 0.015625 0 " clip-rule="nonzero"/></clipPath><clipPath id="ff9fe13bc3"><path d="M 563.679688 252.992188 L -56.996094 191.839844 L -25.683594 -125.957031 L 594.992188 -64.808594 Z M 563.679688 252.992188 " clip-rule="nonzero"/></clipPath><clipPath id="11a13481fe"><path d="M 563.679688 252.992188 L -56.996094 191.839844 L -25.683594 -125.957031 L 594.992188 -64.808594 Z M 563.679688 252.992188 " clip-rule="nonzero"/></clipPath><clipPath id="6c220bbb94"><path d="M 563.628906 252.984375 L -56.582031 191.882812 L -25.292969 -125.714844 L 594.921875 -64.609375 Z M 563.628906 252.984375 " clip-rule="nonzero"/></clipPath><mask id="90a9414303"><g filter="url(#07f9b25584)"><rect x="-131.01" width="857.52" fill="#000000" y="-185.294995" height="1212.839969" fill-opacity="0.5"/></g></mask><clipPath id="6cffff0089"><path d="M 0.015625 0 L 594.925781 0 L 594.925781 91 L 0.015625 91 Z M 0.015625 0 " clip-rule="nonzero"/></clipPath><clipPath id="5f435e011c"><path d="M 563.679688 252.992188 L -56.996094 191.839844 L -25.683594 -125.957031 L 594.992188 -64.808594 Z M 563.679688 252.992188 " clip-rule="nonzero"/></clipPath><clipPath id="b1a3bd9909"><path d="M 563.679688 252.992188 L -56.996094 191.839844 L -25.683594 -125.957031 L 594.992188 -64.808594 Z M 563.679688 252.992188 " clip-rule="nonzero"/></clipPath><clipPath id="3dcc64ca60"><path d="M 563.628906 252.984375 L -56.582031 191.882812 L -25.292969 -125.714844 L 594.921875 -64.609375 Z M 563.628906 252.984375 " clip-rule="nonzero"/></clipPath><clipPath id="c5112315b0"><rect x="0" width="595" y="0" height="153"/></clipPath><clipPath id="79754e431e"><path d="M 0.015625 0 L 223 0 L 223 91 L 0.015625 91 Z M 0.015625 0 " clip-rule="nonzero"/></clipPath><clipPath id="fca607e5b7"><path d="M 563.679688 252.992188 L -56.996094 191.839844 L -25.683594 -125.957031 L 594.992188 -64.808594 Z M 563.679688 252.992188 " clip-rule="nonzero"/></clipPath><clipPath id="7d33e0c045"><path d="M 563.679688 252.992188 L -56.996094 191.839844 L -25.683594 -125.957031 L 594.992188 -64.808594 Z M 563.679688 252.992188 " clip-rule="nonzero"/></clipPath><clipPath id="a4ebb0b9d9"><path d="M 563.628906 252.984375 L -56.582031 191.882812 L -25.292969 -125.714844 L 594.921875 -64.609375 Z M 563.628906 252.984375 " clip-rule="nonzero"/></clipPath><clipPath id="88aae8be78"><path d="M 30 674.867188 L 594.984375 674.867188 L 594.984375 841.5 L 30 841.5 Z M 30 674.867188 " clip-rule="nonzero"/></clipPath><clipPath id="07bb877b90"><path d="M 12 731 L 594.984375 731 L 594.984375 841.5 L 12 841.5 Z M 12 731 " clip-rule="nonzero"/></clipPath><clipPath id="5e0e59501a"><path d="M 8.515625 731 L 594.984375 731 L 594.984375 841.5 L 8.515625 841.5 Z M 8.515625 731 " clip-rule="nonzero"/></clipPath><clipPath id="3ee9b4e73a"><path d="M 556 21 L 583.191406 21 L 583.191406 45 L 556 45 Z M 556 21 " clip-rule="nonzero"/></clipPath><clipPath id="83baec608a"><path d="M 345.5625 12.46875 L 398 12.46875 L 398 53 L 345.5625 53 Z M 345.5625 12.46875 " clip-rule="nonzero"/></clipPath><clipPath id="9599417b9d"><path d="M 391 12.46875 L 415 12.46875 L 415 40 L 391 40 Z M 391 12.46875 " clip-rule="nonzero"/></clipPath><clipPath id="00a97c0150"><rect x="0" width="595" y="0" height="842"/></clipPath></defs><g clip-path="url(#fe3397d857)"><path fill="#ffffff" d="M 0.015625 0 L 594.984375 0 L 594.984375 841.5 L 0.015625 841.5 Z M 0.015625 0 " fill-opacity="1" fill-rule="nonzero"/><g transform="matrix(1, 0, 0, 1, -0.000000000000000002, 0)"><g clip-path="url(#00a97c0150)"><g clip-path="url(#10a8f8628e)"><path fill="#ffffff" d="M 0.015625 0 L 595.210938 0 L 595.210938 841.816406 L 0.015625 841.816406 Z M 0.015625 0 " fill-opacity="1" fill-rule="nonzero"/></g><g clip-path="url(#9b8636952c)"><g clip-path="url(#f20e7b76a8)"><g clip-path="url(#519cabae3b)"><g clip-path="url(#ab0b6f5ca5)"><g mask="url(#b72d929337)"><g transform="matrix(1, 0, 0, 1, -0.000000000000000002, 0)"><g clip-path="url(#ec68456c1c)"><g clip-path="url(#690a3ee8d6)"><g clip-path="url(#687b2e5489)"><g clip-path="url(#04a1ff4660)"><g clip-path="url(#83e1c1b94e)"><path fill="#ffffff" d="M -46.625 90.820312 C -46.625 90.820312 -14.855469 -14.894531 143.769531 -25.34375 C 302.394531 -35.792969 387.992188 -6.949219 438.929688 -29.144531 C 489.871094 -51.335938 589.1875 -6.402344 589.1875 -6.402344 L 594.921875 -64.609375 L -25.292969 -125.714844 Z M -46.625 90.820312 " fill-opacity="1" fill-rule="nonzero"/></g></g></g></g></g></g></g></g></g></g></g><g clip-path="url(#d4bd80e698)"><g clip-path="url(#6024dc3a8c)"><g clip-path="url(#27048c0545)"><g clip-path="url(#4163b532e1)"><path fill="#051838" d="M -56.582031 191.878906 C 1.035156 -49.609375 488.808594 -75.0625 488.808594 -75.0625 L -25.292969 -125.714844 Z M -56.582031 191.878906 " fill-opacity="1" fill-rule="nonzero"/></g></g></g></g><g clip-path="url(#d40c222a5e)"><g clip-path="url(#ff9fe13bc3)"><g clip-path="url(#11a13481fe)"><g clip-path="url(#6c220bbb94)"><g mask="url(#90a9414303)"><g transform="matrix(1, 0, 0, 1, -0.000000000000000002, 0)"><g clip-path="url(#c5112315b0)"><g clip-path="url(#6cffff0089)"><g clip-path="url(#5f435e011c)"><g clip-path="url(#b1a3bd9909)"><g clip-path="url(#3dcc64ca60)"><path fill="#7688a9" d="M -46.625 90.820312 L -25.292969 -125.714844 L 594.921875 -64.609375 L 589.1875 -6.40625 C 589.1875 -6.40625 489.871094 -51.335938 438.929688 -29.144531 C 397.144531 -10.941406 332.046875 -27.074219 222.449219 -27.695312 C 222.441406 -27.691406 222.433594 -27.691406 222.425781 -27.695312 C 198.417969 -27.832031 172.273438 -27.222656 143.769531 -25.34375 C -14.238281 -14.9375 -46.378906 89.996094 -46.625 90.8125 C -46.625 90.816406 -46.625 90.816406 -46.625 90.820312 Z M -46.625 90.820312 " fill-opacity="1" fill-rule="nonzero"/></g></g></g></g></g></g></g></g></g></g></g><g clip-path="url(#79754e431e)"><g clip-path="url(#fca607e5b7)"><g clip-path="url(#7d33e0c045)"><g clip-path="url(#a4ebb0b9d9)"><path fill="#051838" d="M -46.625 90.8125 C -46.378906 89.996094 -14.238281 -14.9375 143.769531 -25.34375 C 172.273438 -27.222656 198.417969 -27.832031 222.425781 -27.695312 C 155.269531 -22.867188 38.074219 -4.140625 -46.625 90.8125 Z M -46.625 90.8125 " fill-opacity="1" fill-rule="nonzero"/></g></g></g></g><g clip-path="url(#88aae8be78)"><path fill="#7688a9" d="M 603.710938 674.871094 L 603.710938 934.984375 L 65.113281 934.984375 L 34.71875 793.988281 L 30.824219 775.921875 C 73.28125 789.28125 115.535156 798.144531 157.585938 802.515625 C 222.519531 809.265625 286.953125 805.296875 350.882812 790.609375 C 436.046875 771.050781 520.324219 732.46875 603.710938 674.871094 Z M 603.710938 674.871094 " fill-opacity="1" fill-rule="nonzero"/></g><g clip-path="url(#07bb877b90)"><path fill="#fcfcfc" d="M 603.710938 731.617188 L 603.710938 934.984375 L 25.410156 934.984375 L 12.898438 784.363281 C 20.160156 787.726562 27.433594 790.9375 34.722656 793.988281 C 123.273438 831.085938 213.738281 845.148438 306.113281 836.183594 C 403.195312 826.769531 502.394531 791.914062 603.710938 731.617188 Z M 603.710938 731.617188 " fill-opacity="1" fill-rule="nonzero"/></g><g clip-path="url(#5e0e59501a)"><path fill="#051838" d="M 603.710938 781.621094 L 603.710938 934.984375 L 8.515625 934.984375 L 8.515625 731.617188 C 58.722656 761.5 108.414062 785.128906 157.585938 802.515625 C 207.632812 820.210938 257.140625 831.4375 306.109375 836.191406 C 406.09375 845.886719 508.210938 825.871094 603.710938 781.621094 Z M 603.710938 781.621094 " fill-opacity="1" fill-rule="nonzero"/></g><path fill="#686c77" d="M 457.203125 52.652344 L 456.996094 60.519531 L 456.019531 60.519531 L 456.226562 52.652344 Z M 457.203125 52.652344 " fill-opacity="1" fill-rule="nonzero"/><path fill="#686c77" d="M 459.671875 60.519531 L 459.878906 52.652344 L 460.945312 52.652344 L 463.265625 56.632812 C 463.804688 57.554688 464.21875 58.382812 464.558594 59.1875 L 464.582031 59.175781 C 464.519531 58.125 464.523438 57.167969 464.554688 55.941406 L 464.640625 52.652344 L 465.566406 52.652344 L 465.355469 60.519531 L 464.367188 60.519531 L 462.066406 56.527344 C 461.5625 55.652344 461.078125 54.75 460.722656 53.898438 L 460.6875 53.910156 C 460.71875 54.902344 460.714844 55.847656 460.679688 57.15625 L 460.589844 60.519531 L 459.667969 60.519531 Z M 459.671875 60.519531 " fill-opacity="1" fill-rule="nonzero"/><path fill="#686c77" d="M 468.101562 52.757812 C 468.703125 52.664062 469.410156 52.59375 470.1875 52.59375 C 471.589844 52.59375 472.582031 52.933594 473.226562 53.574219 C 473.886719 54.214844 474.253906 55.125 474.222656 56.398438 C 474.1875 57.679688 473.777344 58.730469 473.050781 59.457031 C 472.324219 60.191406 471.144531 60.589844 469.671875 60.589844 C 468.976562 60.589844 468.390625 60.554688 467.898438 60.496094 Z M 468.898438 59.714844 C 469.144531 59.761719 469.503906 59.773438 469.886719 59.773438 C 471.976562 59.773438 473.144531 58.558594 473.199219 56.433594 C 473.257812 54.578125 472.277344 53.398438 470.210938 53.398438 C 469.703125 53.398438 469.320312 53.441406 469.0625 53.503906 L 468.898438 59.710938 Z M 468.898438 59.714844 " fill-opacity="1" fill-rule="nonzero"/><path fill="#686c77" d="M 477.195312 52.652344 L 477.074219 57.308594 C 477.027344 59.070312 477.761719 59.816406 478.773438 59.816406 C 479.898438 59.816406 480.636719 59.046875 480.683594 57.308594 L 480.804688 52.652344 L 481.796875 52.652344 L 481.675781 57.238281 C 481.609375 59.65625 480.359375 60.648438 478.71875 60.648438 C 477.167969 60.648438 476.023438 59.726562 476.085938 57.285156 L 476.207031 52.652344 Z M 477.195312 52.652344 " fill-opacity="1" fill-rule="nonzero"/><path fill="#686c77" d="M 483.5625 59.28125 C 483.996094 59.5625 484.628906 59.792969 485.304688 59.792969 C 486.304688 59.792969 486.902344 59.246094 486.921875 58.453125 C 486.941406 57.714844 486.550781 57.296875 485.535156 56.886719 C 484.3125 56.433594 483.566406 55.769531 483.59375 54.660156 C 483.628906 53.433594 484.628906 52.523438 486.101562 52.523438 C 486.878906 52.523438 487.433594 52.707031 487.765625 52.910156 L 487.476562 53.738281 C 487.234375 53.597656 486.734375 53.363281 486.046875 53.363281 C 485.011719 53.363281 484.601562 54.003906 484.589844 54.542969 C 484.570312 55.28125 485.019531 55.640625 486.054688 56.0625 C 487.320312 56.574219 487.957031 57.21875 487.925781 58.371094 C 487.894531 59.585938 487.003906 60.636719 485.214844 60.636719 C 484.484375 60.636719 483.691406 60.417969 483.296875 60.136719 L 483.566406 59.285156 Z M 483.5625 59.28125 " fill-opacity="1" fill-rule="nonzero"/><path fill="#686c77" d="M 492.304688 53.515625 L 490.003906 53.515625 L 490.023438 52.652344 L 495.632812 52.652344 L 495.609375 53.515625 L 493.292969 53.515625 L 493.109375 60.519531 L 492.121094 60.519531 Z M 492.304688 53.515625 " fill-opacity="1" fill-rule="nonzero"/><path fill="#686c77" d="M 497.183594 52.757812 C 497.679688 52.652344 498.390625 52.59375 499.0625 52.59375 C 500.109375 52.59375 500.777344 52.792969 501.238281 53.234375 C 501.609375 53.585938 501.808594 54.121094 501.792969 54.730469 C 501.765625 55.769531 501.117188 56.457031 500.3125 56.738281 L 500.3125 56.773438 C 500.890625 56.980469 501.222656 57.542969 501.382812 58.359375 C 501.601562 59.457031 501.761719 60.214844 501.910156 60.519531 L 500.902344 60.519531 C 500.785156 60.296875 500.632812 59.621094 500.445312 58.640625 C 500.246094 57.554688 499.855469 57.144531 498.96875 57.109375 L 498.046875 57.109375 L 497.953125 60.519531 L 496.976562 60.519531 L 497.179688 52.757812 Z M 498.066406 56.339844 L 499.066406 56.339844 C 500.109375 56.339844 500.789062 55.746094 500.8125 54.84375 C 500.839844 53.828125 500.144531 53.386719 499.113281 53.375 C 498.640625 53.375 498.300781 53.421875 498.144531 53.46875 Z M 498.066406 56.339844 " fill-opacity="1" fill-rule="nonzero"/><path fill="#686c77" d="M 505.894531 52.652344 L 505.6875 60.519531 L 504.707031 60.519531 L 504.914062 52.652344 Z M 505.894531 52.652344 " fill-opacity="1" fill-rule="nonzero"/><path fill="#686c77" d="M 509.652344 58.042969 L 508.800781 60.519531 L 507.789062 60.519531 L 510.570312 52.652344 L 511.75 52.652344 L 514.128906 60.519531 L 513.082031 60.519531 L 512.339844 58.042969 Z M 512.152344 57.25 L 511.472656 54.984375 C 511.316406 54.472656 511.214844 54.003906 511.117188 53.550781 L 511.09375 53.550781 C 510.96875 54.015625 510.832031 54.496094 510.671875 54.972656 L 509.871094 57.25 Z M 512.152344 57.25 " fill-opacity="1" fill-rule="nonzero"/><path fill="#686c77" d="M 515.429688 52.652344 L 516.40625 52.652344 L 516.222656 59.664062 L 519.460938 59.664062 L 519.4375 60.515625 L 515.222656 60.515625 L 515.429688 52.648438 Z M 515.429688 52.652344 " fill-opacity="1" fill-rule="nonzero"/><path fill="#686c77" d="M 525.117188 59.28125 C 525.546875 59.5625 526.179688 59.792969 526.855469 59.792969 C 527.855469 59.792969 528.453125 59.246094 528.476562 58.453125 C 528.492188 57.714844 528.101562 57.296875 527.089844 56.886719 C 525.863281 56.433594 525.117188 55.769531 525.148438 54.660156 C 525.179688 53.433594 526.179688 52.523438 527.65625 52.523438 C 528.429688 52.523438 528.988281 52.707031 529.316406 52.910156 L 529.027344 53.738281 C 528.785156 53.597656 528.285156 53.363281 527.597656 53.363281 C 526.566406 53.363281 526.15625 54.003906 526.140625 54.542969 C 526.121094 55.28125 526.574219 55.640625 527.605469 56.0625 C 528.875 56.574219 529.507812 57.21875 529.476562 58.371094 C 529.445312 59.585938 528.554688 60.636719 526.765625 60.636719 C 526.035156 60.636719 525.242188 60.417969 524.847656 60.136719 L 525.117188 59.285156 Z M 525.117188 59.28125 " fill-opacity="1" fill-rule="nonzero"/><path fill="#686c77" d="M 532.664062 52.746094 C 533.136719 52.664062 533.757812 52.59375 534.546875 52.59375 C 535.511719 52.59375 536.214844 52.828125 536.652344 53.246094 C 537.058594 53.621094 537.289062 54.191406 537.273438 54.894531 C 537.253906 55.605469 537.035156 56.164062 536.644531 56.574219 C 536.113281 57.148438 535.261719 57.4375 534.304688 57.4375 C 534.011719 57.4375 533.742188 57.425781 533.519531 57.371094 L 533.4375 60.519531 L 532.457031 60.519531 Z M 533.542969 56.539062 C 533.753906 56.59375 534.023438 56.621094 534.351562 56.621094 C 535.53125 56.621094 536.265625 56.023438 536.292969 54.941406 C 536.320312 53.898438 535.625 53.398438 534.546875 53.398438 C 534.117188 53.398438 533.792969 53.433594 533.621094 53.480469 L 533.539062 56.539062 Z M 533.542969 56.539062 " fill-opacity="1" fill-rule="nonzero"/><path fill="#686c77" d="M 540.425781 58.042969 L 539.574219 60.519531 L 538.5625 60.519531 L 541.34375 52.652344 L 542.523438 52.652344 L 544.902344 60.519531 L 543.855469 60.519531 L 543.113281 58.042969 Z M 542.929688 57.25 L 542.25 54.984375 C 542.09375 54.472656 541.992188 54.003906 541.890625 53.550781 L 541.867188 53.550781 C 541.742188 54.015625 541.605469 54.496094 541.449219 54.972656 L 540.648438 57.25 Z M 542.929688 57.25 " fill-opacity="1" fill-rule="nonzero"/><path fill="#686c77" d="M 453.453125 55.460938 L 437.921875 56.078125 L 453.453125 56.691406 Z M 453.453125 55.460938 " fill-opacity="1" fill-rule="evenodd"/><path fill="#686c77" d="M 547.007812 55.460938 L 562.542969 56.078125 L 547.007812 56.691406 Z M 547.007812 55.460938 " fill-opacity="1" fill-rule="evenodd"/><g clip-path="url(#3ee9b4e73a)"><path fill="#1d4370" d="M 556.242188 44.863281 L 563.320312 44.863281 L 568.820312 38.101562 L 573.757812 44.863281 L 581.449219 44.863281 L 573.414062 33.339844 L 583.191406 21.519531 L 575.808594 21.519531 L 570.027344 29.398438 L 564.886719 21.519531 L 557.402344 21.519531 L 565.566406 33.792969 Z M 556.242188 44.863281 " fill-opacity="1" fill-rule="nonzero"/></g><path fill="#1d4370" d="M 528.507812 44.863281 L 535.378906 44.863281 L 537.621094 40.128906 L 547.527344 40.128906 L 549.132812 44.863281 L 556.144531 44.863281 L 548.847656 21.519531 L 540.269531 21.519531 L 528.503906 44.863281 Z M 539.445312 35.285156 L 543.734375 26.34375 L 546.507812 35.285156 Z M 539.445312 35.285156 " fill-opacity="1" fill-rule="nonzero"/><path fill="#1d4370" d="M 489.21875 44.863281 L 495.839844 44.863281 L 497.875 26.414062 L 505.050781 26.414062 L 505.609375 21.910156 L 484.464844 21.910156 L 483.90625 26.414062 L 491.5 26.414062 Z M 489.21875 44.863281 " fill-opacity="1" fill-rule="nonzero"/><path fill="#1d4370" d="M 467.867188 44.863281 L 486.660156 44.863281 L 487.289062 39.773438 L 475.117188 39.773438 L 477.375 21.519531 L 470.757812 21.519531 Z M 467.867188 44.863281 " fill-opacity="1" fill-rule="nonzero"/><path fill="#1d4370" d="M 425.644531 44.863281 L 434.351562 44.863281 L 445.578125 21.519531 L 439.566406 21.519531 L 430.84375 39.695312 L 425.78125 21.519531 L 418.726562 21.519531 Z M 425.644531 44.863281 " fill-opacity="1" fill-rule="nonzero"/><path fill="#1d4370" d="M 522.296875 29.695312 C 522.402344 28.609375 522.074219 27.816406 521.3125 27.324219 C 520.554688 26.835938 519.433594 26.589844 517.960938 26.589844 L 514.007812 26.589844 L 513.378906 32.75 L 517.332031 32.75 C 518.804688 32.75 519.976562 32.722656 520.839844 32.164062 C 521.703125 31.609375 522.1875 30.789062 522.292969 29.695312 M 522.589844 36.453125 L 528.019531 44.820312 L 520.863281 44.820312 L 516.175781 36.925781 L 512.75 36.84375 L 511.933594 44.824219 L 505.375 44.824219 L 508.171875 22.125 L 519.320312 22.0625 C 520.851562 22.054688 522.25 22.210938 523.515625 22.5 C 524.777344 22.792969 525.980469 23.0625 526.710938 23.796875 C 530.792969 27.90625 529.457031 35.226562 522.59375 36.453125 Z M 522.589844 36.453125 " fill-opacity="1" fill-rule="nonzero"/><path fill="#1d4370" d="M 438.964844 44.863281 L 445.835938 44.863281 L 448.078125 40.128906 L 457.984375 40.128906 L 459.589844 44.863281 L 466.601562 44.863281 L 459.304688 21.519531 L 450.726562 21.519531 Z M 449.902344 35.285156 L 454.191406 26.34375 L 456.964844 35.285156 Z M 449.902344 35.285156 " fill-opacity="1" fill-rule="nonzero"/><g clip-path="url(#83baec608a)"><path fill="#1d4370" d="M 369.9375 52.199219 L 385.875 25.429688 L 389.957031 25.285156 L 397.703125 12.476562 L 381.296875 12.621094 L 369.4375 31.933594 L 359.035156 12.765625 L 345.5625 12.765625 Z M 369.9375 52.199219 " fill-opacity="1" fill-rule="nonzero"/></g><g clip-path="url(#9599417b9d)"><path fill="#686c77" d="M 398.082031 39.242188 L 414.597656 12.617188 L 402.003906 12.476562 L 391.855469 29.136719 Z M 398.082031 39.242188 " fill-opacity="1" fill-rule="nonzero"/></g><path fill="#686c77" d="M 383.710938 62.164062 L 390.628906 51.007812 L 397.636719 62.164062 L 409.207031 62.164062 L 387.855469 28.242188 L 382.066406 37.820312 L 384.203125 41.28125 L 371.484375 62.164062 Z M 383.710938 62.164062 " fill-opacity="1" fill-rule="nonzero"/></g></g></g></svg>